<svg xmlns="http://www.w3.org/2000/svg" xmlns:xlink="http://www.w3.org/1999/xlink" width="178" height="48" viewBox="0 0 178 48">
  <defs>
    <clipPath id="clip-path">
      <rect id="Rectangle_1" data-name="Rectangle 1" width="178" height="48" transform="translate(422 1152)" fill="#fff" stroke="#707070" stroke-width="1"/>
    </clipPath>
  </defs>
  <g id="logo5" transform="translate(-422 -1152)" clip-path="url(#clip-path)">
    <g id="logo5-2" data-name="logo5" transform="translate(449.667 1152.092)">
      <g id="Group_1" data-name="Group 1">
        <path id="Path_1" data-name="Path 1" d="M20.138,30.621H17.2l-.184-.552,6.437-6.8h.276v4.322H28.6a7.147,7.147,0,0,1,.184,1.471v.828c0,.276-.092.46-.092.736H23.816v9.2a18.556,18.556,0,0,0,.092,2.483,4.629,4.629,0,0,0,.46,1.471,1.17,1.17,0,0,0,.828.644,5.566,5.566,0,0,0,1.379.184,4.858,4.858,0,0,0,1.2-.092c.368-.092.736-.092,1.011-.184a4.3,4.3,0,0,1,.276,1.563c0,.552.092,1.011.092,1.379-.46.092-1.011.184-1.563.276a10.559,10.559,0,0,1-1.747.092,6.452,6.452,0,0,1-4.23-1.287,5.579,5.579,0,0,1-1.563-4.414V30.621Z" fill="#2d2e2d"/>
        <path id="Path_2" data-name="Path 2" d="M38.8,47.816a10.453,10.453,0,0,1-3.954-.736A8.256,8.256,0,0,1,32,44.966a8.9,8.9,0,0,1-1.655-3.218,13.7,13.7,0,0,1-.552-3.954,13.255,13.255,0,0,1,.552-3.954A9.715,9.715,0,0,1,32,30.621a6.647,6.647,0,0,1,2.851-2.115,9.86,9.86,0,0,1,7.908,0,9.6,9.6,0,0,1,2.851,2.115,8.9,8.9,0,0,1,1.655,3.218,12.226,12.226,0,0,1,.552,3.862,13.255,13.255,0,0,1-.552,3.954,9.715,9.715,0,0,1-1.655,3.218,6.647,6.647,0,0,1-2.851,2.115A8.937,8.937,0,0,1,38.8,47.816Zm0-3.034a4.4,4.4,0,0,0,3.862-1.839A9.6,9.6,0,0,0,43.954,37.7a9.6,9.6,0,0,0-1.287-5.241A4.2,4.2,0,0,0,38.8,30.621a4.4,4.4,0,0,0-3.862,1.839,9.418,9.418,0,0,0-1.2,5.241,9.625,9.625,0,0,0,1.2,5.241A4.4,4.4,0,0,0,38.8,44.782Z" fill="#2d2e2d"/>
        <path id="Path_3" data-name="Path 3" d="M63.632,43.954c.184.368.368.828.552,1.287A5.207,5.207,0,0,1,64.46,46.9a14.587,14.587,0,0,1-5.057.828c-3.218,0-5.609-.92-7.264-2.759a10.478,10.478,0,0,1-2.483-7.356,10.818,10.818,0,0,1,.644-3.954,9.911,9.911,0,0,1,1.747-3.218,7.554,7.554,0,0,1,2.943-2.115,9.777,9.777,0,0,1,4.138-.828,23.039,23.039,0,0,1,2.759.184,9.446,9.446,0,0,1,2.3.644A9.169,9.169,0,0,1,64,29.793a5.551,5.551,0,0,1-.46,1.471,12.032,12.032,0,0,0-4.23-.644,4.985,4.985,0,0,0-4.322,1.931,8.463,8.463,0,0,0-1.471,5.057,7.563,7.563,0,0,0,1.655,5.333A5.965,5.965,0,0,0,59.586,44.6a15.092,15.092,0,0,0,2.115-.184A4.942,4.942,0,0,0,63.632,43.954Z" fill="#2d2e2d"/>
        <path id="Path_4" data-name="Path 4" d="M66.391,19.4a2.835,2.835,0,0,1,.92-.092h1.839c.368,0,.644.092.92.092V47.54a3.128,3.128,0,0,1-.92.092H67.31c-.368,0-.644-.092-.92-.092Z" fill="#2d2e2d"/>
        <path id="Path_5" data-name="Path 5" d="M83.586,19.678a2.835,2.835,0,0,1,.92-.092h1.839c.368,0,.644.092.92.092V30.345a6.2,6.2,0,0,1,2.115-1.931,6.778,6.778,0,0,1,3.494-.828,9.1,9.1,0,0,1,3.218.552,5.337,5.337,0,0,1,2.483,1.747,8.066,8.066,0,0,1,1.655,3.034,14.962,14.962,0,0,1,.552,4.322,10.488,10.488,0,0,1-2.851,7.816c-1.839,1.839-4.6,2.851-8.092,2.851a22.1,22.1,0,0,1-3.4-.276,17.1,17.1,0,0,1-2.943-.736V19.678Zm3.77,24.552a3.812,3.812,0,0,0,1.471.276,8.921,8.921,0,0,0,1.563.092,7.978,7.978,0,0,0,2.575-.46,5.1,5.1,0,0,0,2.023-1.287,6.945,6.945,0,0,0,1.379-2.3,8.744,8.744,0,0,0,.552-3.218,9.109,9.109,0,0,0-1.1-4.874,3.857,3.857,0,0,0-3.586-1.747,6.248,6.248,0,0,0-1.747.276,3.906,3.906,0,0,0-1.563.92,5.218,5.218,0,0,0-1.1,1.655,7.02,7.02,0,0,0-.46,2.483Z" fill="#2d2e2d"/>
        <path id="Path_6" data-name="Path 6" d="M103.816,30.713h-2.483a1.793,1.793,0,0,1-.092-.736V28.322c0-.276.092-.552.092-.736h6.253V47.54a3.128,3.128,0,0,1-.92.092h-1.839c-.368,0-.644-.092-.92-.092V30.713Z" fill="#2d2e2d"/>
        <path id="Path_7" data-name="Path 7" d="M112.276,30.621h-2.943l-.184-.552,6.437-6.8h.276v4.322h4.874a7.146,7.146,0,0,1,.184,1.471v.828c0,.276-.092.46-.092.736h-4.874v9.2a18.556,18.556,0,0,0,.092,2.483,4.629,4.629,0,0,0,.46,1.471,1.17,1.17,0,0,0,.828.644,5.565,5.565,0,0,0,1.379.184,4.858,4.858,0,0,0,1.2-.092c.368-.092.736-.092,1.011-.184a4.3,4.3,0,0,1,.276,1.563c0,.552.092,1.011.092,1.379-.46.092-1.011.184-1.563.276a10.559,10.559,0,0,1-1.747.092,6.452,6.452,0,0,1-4.23-1.287,5.579,5.579,0,0,1-1.563-4.414V30.621Z" fill="#2d2e2d"/>
        <path id="Path_8" data-name="Path 8" d="M70.989,37.425l6.253-9.563a3.772,3.772,0,0,1,1.011-.092h2.115c.368,0,.736.092,1.011.092l-6.253,9.2L82.483,47.54a4.124,4.124,0,0,1-1.011.092H79.356c-.368,0-.736-.092-1.1-.092Z" fill="#2d2e2d"/>
        <path id="Path_9" data-name="Path 9" d="M8.276,30.989h-.46a5.5,5.5,0,0,1-2.3-.552,3.517,3.517,0,0,1-2.023-3.4c0-4.782,4.414-5.057,5.241-5.057q3.586,0,4.138,4.138l.092.368H15.54V20.6l-.276-.092A24.444,24.444,0,0,0,8.92,19.494c-3.31,0-8.92,1.1-8.92,8.46,0,6.9,7.356,6.989,7.724,6.989s5.517.552,5.517,4.69c0,5.057-3.034,5.425-5.885,5.425-1.747,0-4.69-.644-4.69-4.69v-.46H-.092v5.241l.184.184c.276,0,3.586,2.391,7.264,2.391,6.437,0,9.747-3.126,9.747-9.1C17.1,31.816,10.115,31.08,8.276,30.989Z" fill="#2d2e2d"/>
      </g>
      <g id="Group_4" data-name="Group 4">
        <g id="Group_2" data-name="Group 2">
          <path id="Path_10" data-name="Path 10" d="M113.287,7.08h-2.851V4.23H94.161a1.062,1.062,0,0,0-1.1,1.1V18.943a1.062,1.062,0,0,0,1.1,1.1h8.184v.092l1.931,3.034c.092.184.184.184.368.184a.7.7,0,0,0,.368-.184l1.931-3.034v-.092h8.184a1.062,1.062,0,0,0,1.1-1.1v-8.92h-2.851V7.08Z" fill="#2d2e2d"/>
          <rect id="Rectangle_2" data-name="Rectangle 2" width="2.851" height="2.851" transform="translate(112 2.667)" fill="#2d2e2d"/>
          <rect id="Rectangle_3" data-name="Rectangle 3" width="2.851" height="2.851" transform="translate(116.966 5.517)" fill="#2d2e2d"/>
          <rect id="Rectangle_4" data-name="Rectangle 4" width="2.851" height="2.851" transform="translate(119.908 -0.092)" fill="#2d2e2d"/>
        </g>
        <g id="Group_3" data-name="Group 3">
          <path id="Path_11" data-name="Path 11" d="M98.943,16.736c-.092,0-.184,0-.368-.184l-3.77-3.77a.667.667,0,0,1,0-.92l.552-.552a.667.667,0,0,1,.92,0l2.759,2.759a1.369,1.369,0,0,1,.368.828l-.092,1.379A.421.421,0,0,1,98.943,16.736Z" fill="#d6403d"/>
          <path id="Path_12" data-name="Path 12" d="M97.471,15.356l1.287-1.747.368.368.092.092-1.655,1.379Z" fill="#a63131"/>
          <path id="Path_13" data-name="Path 13" d="M99.126,16.736a.7.7,0,0,1-.46-.184l-1.1-1.1,5.7-4.69c.092-.092.184-.092.368-.092s.368.184.46.46v1.287a1.369,1.369,0,0,1-.368.828l-4.046,3.31a3.616,3.616,0,0,1-.552.184Z" fill="#5780c1"/>
          <path id="Path_14" data-name="Path 14" d="M106.483,14.989a.338.338,0,0,1-.276-.092l-4.23-3.034.552-.46.644-.552a.7.7,0,0,1,.46-.184c.184,0,.276.092.46.092l2.3,1.655a1.1,1.1,0,0,1,.46.828l.092,1.287c0,.184-.092.276-.092.368C106.759,14.989,106.667,14.989,106.483,14.989Z" fill="#ffcd3f"/>
          <path id="Path_15" data-name="Path 15" d="M106.667,15.08c-.184,0-.276-.092-.46-.092l-1.287-.92L110.713,9.1a.667.667,0,0,1,.92,0l.552.644a.667.667,0,0,1,0,.92l-4.966,4.23a1.307,1.307,0,0,1-.552.184Z" fill="#009e5d"/>
          <path id="Path_16" data-name="Path 16" d="M101.793,11.954l1.379,1.655s.368-.276.46-.368l.092-.092-1.747-1.287Z" fill="#33668f"/>
          <path id="Path_17" data-name="Path 17" d="M104.828,13.885l1.287-1.655.276.184.092.092-1.655,1.379Z" fill="#bf9447"/>
        </g>
      </g>
    </g>
  </g>
</svg>
