<svg xmlns="http://www.w3.org/2000/svg" width="600" height="164" viewBox="0 0 600 164">
    <g fill="none" fill-rule="evenodd">
        <path fill="#C2002F" d="M136.536 111V75.937c0-1.805-.154-3.523-.455-5.157-.305-1.63-.802-3.071-1.497-4.317a7.738 7.738 0 0 0-2.926-2.964c-1.258-.73-2.843-1.098-4.748-1.098-1.91 0-3.577.368-5.01 1.098a10.116 10.116 0 0 0-3.576 3.027c-.955 1.29-1.67 2.773-2.146 4.449a18.955 18.955 0 0 0-.716 5.22V111H94V46.805h20.683v8.894h.26c.78-1.374 1.799-2.728 3.056-4.06 1.256-1.331 2.732-2.47 4.423-3.417a27.758 27.758 0 0 1 5.527-2.32c1.996-.6 4.12-.902 6.375-.902 4.337 0 8.02.773 11.059 2.32 3.033 1.546 5.482 3.546 7.347 5.995 1.864 2.45 3.208 5.264 4.032 8.442a37.89 37.89 0 0 1 1.238 9.54V111h-21.464M171.533 110h20.936V46h-20.936v64zM194 25.566c0 1.629-.319 3.149-.959 4.562a11.71 11.71 0 0 1-2.553 3.662c-1.063 1.029-2.34 1.845-3.829 2.444-1.49.6-3.045.897-4.659.897-3.406 0-6.254-1.133-8.553-3.404-2.297-2.27-3.447-4.99-3.447-8.161 0-1.542.297-3.02.894-4.434a10.531 10.531 0 0 1 2.553-3.662 13.841 13.841 0 0 1 3.83-2.507c1.447-.642 3.02-.963 4.723-.963 1.614 0 3.17.301 4.66.9 1.488.6 2.765 1.413 3.828 2.441a11.755 11.755 0 0 1 2.553 3.663c.64 1.413.959 2.935.959 4.562zM247.536 111V75.937c0-1.805-.15-3.523-.456-5.157-.305-1.63-.802-3.071-1.494-4.317a7.744 7.744 0 0 0-2.929-2.964c-1.258-.73-2.84-1.098-4.748-1.098-1.906 0-3.575.368-5.007 1.098-1.43.73-2.624 1.74-3.577 3.027-.957 1.29-1.671 2.773-2.146 4.449a18.953 18.953 0 0 0-.715 5.22V111H205V46.805h20.682v8.894h.26c.781-1.374 1.8-2.728 3.058-4.06 1.256-1.331 2.73-2.47 4.423-3.417a27.679 27.679 0 0 1 5.529-2.32c1.992-.6 4.116-.902 6.373-.902 4.335 0 8.02.773 11.057 2.32 3.035 1.546 5.483 3.546 7.348 5.995 1.866 2.45 3.21 5.264 4.034 8.442a37.977 37.977 0 0 1 1.236 9.54V111h-21.464M305 25.58c0 1.631-.328 3.153-.983 4.568a11.758 11.758 0 0 1-2.625 3.667c-1.094 1.03-2.405 1.847-3.937 2.446-1.53.602-3.128.9-4.787.9-3.5 0-6.428-1.136-8.791-3.41-2.361-2.272-3.543-4.996-3.543-8.17 0-1.545.308-3.025.919-4.44a10.52 10.52 0 0 1 2.624-3.667 14.256 14.256 0 0 1 3.935-2.51c1.487-.643 3.104-.964 4.856-.964 1.66 0 3.258.302 4.787.9 1.532.602 2.843 1.416 3.937 2.445a11.805 11.805 0 0 1 2.625 3.667c.655 1.415.983 2.939.983 4.568zm-1.574 86.212c0 3.945-.372 7.697-1.115 11.258-.745 3.558-2.078 6.668-4.002 9.328-1.924 2.66-4.59 4.76-8.002 6.306-3.413 1.544-7.743 2.316-12.99 2.316-1.487 0-3.105-.087-4.856-.258-1.748-.173-3.235-.43-4.461-.772l1.445-17.628c.787.258 1.596.429 2.426.514a21.71 21.71 0 0 0 2.167.129c3.148 0 5.248-1.052 6.296-3.151 1.05-2.103 1.576-4.784 1.576-8.042V46.04h21.516v65.752zM354.423 82.396h-2.742c-2.35 0-4.722.11-7.115.323-2.391.215-4.525.626-6.395 1.228-1.872.604-3.418 1.487-4.633 2.65-1.22 1.163-1.828 2.694-1.828 4.588 0 1.208.282 2.243.847 3.104a6.541 6.541 0 0 0 2.156 2.068c.87.518 1.87.885 3.001 1.1 1.13.215 2.22.323 3.263.323 4.35 0 7.68-1.184 9.986-3.556 2.305-2.369 3.46-5.578 3.46-9.631v-2.197zm-39.291-27.537c3.83-3.618 8.289-6.334 13.381-8.144C333.602 44.905 338.801 44 344.11 44c5.485 0 10.117.67 13.9 2.006 3.79 1.335 6.855 3.404 9.204 6.203 2.35 2.803 4.068 6.336 5.157 10.602C373.457 67.077 374 72.141 374 78v32.449h-19.577v-6.852h-.395c-1.652 2.672-4.154 4.74-7.501 6.204-3.354 1.465-6.985 2.199-10.902 2.199-2.61 0-5.306-.345-8.092-1.035-2.786-.687-5.332-1.81-7.637-3.36-2.304-1.552-4.198-3.621-5.678-6.207-1.477-2.585-2.218-5.773-2.218-9.565 0-4.655 1.282-8.403 3.853-11.247 2.564-2.845 5.871-5.042 9.919-6.593 4.046-1.551 8.549-2.586 13.508-3.102a139.45 139.45 0 0 1 14.489-.777V69.08c0-3.188-1.131-5.538-3.394-7.047-2.262-1.505-5.048-2.261-8.353-2.261-3.048 0-5.982.646-8.81 1.938-2.83 1.294-5.244 2.844-7.245 4.655l-10.835-11.507z"/>
        <path fill="#000" d="M114.028 146l-5.528-7.989-5.684 7.989H93l10.281-13.626-9.3-12.374h9.87l4.803 6.945 4.859-6.945h9.559l-9.25 12.374L124 146h-9.972M146.677 132.537c0-.83-.134-1.64-.395-2.44a6.317 6.317 0 0 0-1.15-2.099 5.837 5.837 0 0 0-1.911-1.478c-.766-.38-1.656-.57-2.669-.57-.978 0-1.85.19-2.618.57a6.209 6.209 0 0 0-1.961 1.506 6.831 6.831 0 0 0-1.26 2.125 6.965 6.965 0 0 0-.442 2.438c0 .828.148 1.642.443 2.437a6.84 6.84 0 0 0 1.259 2.127 6.198 6.198 0 0 0 1.96 1.502c.769.381 1.64.572 2.62.572 1.012 0 1.902-.19 2.668-.572a5.644 5.644 0 0 0 1.91-1.502c.506-.623.89-1.34 1.151-2.153a8.02 8.02 0 0 0 .395-2.463zm8.323 0c0 1.798-.28 3.526-.838 5.186-.557 1.659-1.37 3.12-2.434 4.382a12.01 12.01 0 0 1-3.9 3.033c-1.538.761-3.282 1.143-5.235 1.143-1.606 0-3.124-.322-4.553-.96-1.434-.64-2.55-1.513-3.352-2.62h-.105V158H126v-38.273h8.166v3.162h.157c.802-1.037 1.91-1.942 3.322-2.721 1.415-.779 3.08-1.168 5-1.168 1.885 0 3.595.364 5.13 1.09a11.57 11.57 0 0 1 3.9 2.956c1.063 1.244 1.883 2.69 2.459 4.33.577 1.643.866 3.363.866 5.161zM174.639 126.859a6.614 6.614 0 0 0-1.107-.212 11.222 11.222 0 0 0-1.058-.053c-1.132 0-2.083.212-2.857.632-.773.42-1.393.93-1.856 1.525a5.873 5.873 0 0 0-1.005 1.945c-.205.703-.31 1.315-.31 1.84V146H158v-26.228h8.14v3.795h.104a8.481 8.481 0 0 1 2.78-3.29c1.201-.85 2.594-1.277 4.173-1.277.343 0 .678.02 1.004.053.327.036.592.088.799.16l-.361 7.646M195.434 129.99c0-1.375-.409-2.554-1.226-3.542-.82-.985-2.047-1.477-3.684-1.477-.8 0-1.535.132-2.203.395a5.704 5.704 0 0 0-1.754 1.082c-.5.46-.9.998-1.2 1.613a4.929 4.929 0 0 0-.504 1.928h10.571zm7.566 3.328v1.056c0 .352-.017.688-.05 1.004h-18.087c.067.738.277 1.408.628 2.007.349.599.8 1.119 1.35 1.558.551.44 1.171.785 1.854 1.03.687.247 1.395.37 2.13.37 1.303 0 2.404-.255 3.306-.767a6.632 6.632 0 0 0 2.207-1.979l5.708 3.802a11.747 11.747 0 0 1-4.632 4.148c-1.92.967-4.152 1.453-6.689 1.453-1.87 0-3.64-.31-5.311-.925a12.749 12.749 0 0 1-4.383-2.693c-1.253-1.182-2.239-2.632-2.955-4.358-.72-1.726-1.076-3.7-1.076-5.919 0-2.147.35-4.093 1.052-5.837.7-1.742 1.652-3.224 2.855-4.438a12.687 12.687 0 0 1 4.258-2.826c1.636-.668 3.405-1.004 5.31-1.004 1.837 0 3.524.326 5.059.98a11.015 11.015 0 0 1 3.958 2.824c1.104 1.232 1.963 2.73 2.58 4.49.617 1.762.928 3.77.928 6.024zM221.459 127.612a9.313 9.313 0 0 0-2.372-1.692 6.317 6.317 0 0 0-2.875-.686c-.775 0-1.488.158-2.145.476-.656.317-.984.864-.984 1.637 0 .74.361 1.268 1.084 1.586.723.316 1.892.668 3.508 1.056.939.21 1.892.51 2.85.899a9.976 9.976 0 0 1 2.6 1.531 7.288 7.288 0 0 1 1.866 2.325c.47.915.706 2.007.706 3.274 0 1.657-.321 3.055-.959 4.2-.638 1.146-1.473 2.07-2.497 2.775a10.556 10.556 0 0 1-3.457 1.531 15.84 15.84 0 0 1-3.834.476c-2.053 0-4.062-.344-6.03-1.03-1.967-.688-3.608-1.7-4.92-3.037l4.642-5.125c.74.845 1.648 1.55 2.725 2.112a7.284 7.284 0 0 0 3.432.846c.673 0 1.337-.166 1.992-.502.658-.334.984-.925.984-1.77 0-.81-.404-1.409-1.21-1.795-.81-.389-2.07-.793-3.785-1.216a18.821 18.821 0 0 1-2.625-.846 8.134 8.134 0 0 1-2.344-1.427 7.016 7.016 0 0 1-1.691-2.217c-.439-.88-.657-1.937-.657-3.17 0-1.585.319-2.933.958-4.042a8.39 8.39 0 0 1 2.474-2.721 10.766 10.766 0 0 1 3.355-1.558 13.91 13.91 0 0 1 3.658-.502c1.885 0 3.726.31 5.525.925 1.8.617 3.322 1.542 4.567 2.774l-4.541 4.913M246.459 127.612a9.313 9.313 0 0 0-2.372-1.692 6.319 6.319 0 0 0-2.877-.686c-.773 0-1.486.158-2.143.476-.656.317-.984.864-.984 1.637 0 .74.361 1.268 1.084 1.586.723.316 1.892.668 3.508 1.056.939.21 1.892.51 2.85.899a9.965 9.965 0 0 1 2.597 1.531 7.268 7.268 0 0 1 1.87 2.325c.469.915.705 2.007.705 3.274 0 1.657-.321 3.055-.959 4.2-.64 1.146-1.473 2.07-2.499 2.775a10.528 10.528 0 0 1-3.455 1.531 15.84 15.84 0 0 1-3.834.476c-2.053 0-4.062-.344-6.03-1.03-1.967-.688-3.608-1.7-4.92-3.037l4.642-5.125c.74.845 1.648 1.55 2.725 2.112a7.276 7.276 0 0 0 3.43.846c.675 0 1.34-.166 1.994-.502.658-.334.984-.925.984-1.77 0-.81-.404-1.409-1.21-1.795-.81-.389-2.07-.793-3.785-1.216a18.821 18.821 0 0 1-2.625-.846 8.134 8.134 0 0 1-2.344-1.427c-.692-.596-1.254-1.337-1.691-2.217-.439-.88-.657-1.937-.657-3.17 0-1.585.319-2.933.958-4.042a8.368 8.368 0 0 1 2.474-2.721 10.766 10.766 0 0 1 3.355-1.558 13.899 13.899 0 0 1 3.658-.502c1.885 0 3.726.31 5.525.925 1.798.617 3.32 1.542 4.567 2.774l-4.541 4.913"/>
        <g>
            <path fill="#000" d="M34.19 106.616l-18.18 10.503v29.212l26.345 15.504 26.94-15.504V117.12l-21.008-10.503z"/>
            <path fill="#FFFFFE" d="M20.975 141.62l18.481 10.724v-17.539l-18.28-10.604-.201 17.419"/>
            <path fill="#C2002F" d="M40.137.336C16.309.336.312 16.082.312 39.499c0 16.023 8.59 29.795 17.68 44.364 4.586 7.334 9.25 14.808 13.074 22.9l9.07 19.652 9.235-21.038c4.326-9.168 10.468-16.512 14.754-23.328 8.49-13.472 15.818-25.11 15.818-43.406C79.943 16.799 62.824.336 40.137.336z"/>
            <path fill="#FFF" d="M48.306 103.972c-.36.758-.72 1.535-1.08 2.332-.7 1.515-1.381 3.089-2.044 4.704a148.426 148.426 0 0 0-4.645 12.895h-.18a88.815 88.815 0 0 0-3.683-11.56v-.02a87.869 87.869 0 0 0-1.984-4.663c-.339-.797-.7-1.574-1.08-2.332-11.573-24.254-30.214-42.75-30.214-65.49 0-20.19 13.294-36.093 36.74-36.093 21.286 0 36.743 15.048 36.743 35.236 0 26.187-15.619 37.806-28.573 64.99zm19.844 14.29v26.667l-25.83 14.769-25.97-14.77-.34-.198v-26.468l16.119-9.148c.7 1.555 1.36 3.129 1.962 4.724l-10.332 6.059 18.3 10.522 18.361-10.522-12.674-7.393a103.2 103.2 0 0 1 2.043-4.744l18.36 10.502zm11.793-79.619C79.943 16.799 62.824.336 40.137.336 16.309.336.312 16.082.312 39.499c0 16.023 8.59 29.795 17.68 44.364 4.586 7.334 9.25 14.808 13.074 22.9l-18.06 10.265v29.934l29.313 16.68 28.834-16.482v-30.132l-20.304-11.6c4.326-9.167 8.99-16.563 13.276-23.379 8.49-13.472 15.818-25.11 15.818-43.406z"/>
            <path fill="#FFF" d="M40.598 10.78c-16.64 0-30.135 13.434-30.135 30.014 0 16.563 13.495 29.995 30.135 29.995 16.66 0 30.155-13.432 30.155-29.995 0-16.58-13.495-30.015-30.155-30.015z"/>
            <path fill="#232020" d="M40.637 67.202c-14.776 0-26.77-11.94-26.77-26.647 0-14.728 11.994-26.645 26.77-26.645 14.797 0 26.772 11.917 26.772 26.645 0 14.708-11.975 26.647-26.772 26.647z"/>
            <path fill="#FFFFFE" d="M51.691 43.844c-2.904 0-5.266-2.332-5.266-5.223 0-2.908 2.362-5.24 5.266-5.24 2.903 0 5.265 2.332 5.265 5.24 0 2.891-2.362 5.223-5.265 5.223zm-22.766.14c-2.905 0-5.267-2.352-5.267-5.243 0-2.889 2.362-5.24 5.267-5.24 2.902 0 5.265 2.351 5.265 5.24 0 2.891-2.363 5.242-5.265 5.242zm25.129-14.37H27.162a9.049 9.049 0 0 0-6.406 2.65c-1.663 1.655-2.684 3.906-2.684 6.399 0 4.98 4.105 9.047 9.09 9.047h26.892c2.502 0 4.765-1.016 6.426-2.651 1.642-1.655 2.664-3.906 2.664-6.396 0-4.984-4.084-9.048-9.09-9.048z"/>
            <path fill="#FFFFFE" d="M29.144 34.417c-1.08 0-1.962.878-1.962 1.953 0 1.076.881 1.953 1.962 1.953a1.962 1.962 0 0 0 1.964-1.953 1.962 1.962 0 0 0-1.964-1.953M51.91 34.278a1.96 1.96 0 0 0-1.962 1.953c0 1.095.882 1.972 1.962 1.972a1.964 1.964 0 0 0 1.962-1.972c0-1.078-.88-1.953-1.962-1.953"/>
        </g>
    </g>
</svg>
